<svg xmlns="http://www.w3.org/2000/svg" viewBox="0 0 312.35 322.71"><defs><style>.cls-1{fill:#ebebeb;}.cls-2{fill:#f5f5f5;}.cls-3{fill:#263238;}.cls-4{fill:#52799c;}.cls-5{fill:#c99077;}.cls-6{fill:#385878;}.cls-7{fill:#38474f;}.cls-8{fill:#dbdbdb;}.cls-9{fill:#fff;}.cls-10{fill:#af6954;}.cls-11,.cls-12{fill:none;stroke-miterlimit:10;}.cls-11{stroke:#ebebeb;stroke-width:3px;}.cls-12{stroke:#dbdbdb;}</style></defs><title>Asset 4</title><g id="Layer_2" data-name="Layer 2"><g id="OBJECTS"><rect class="cls-1" x="94.1" y="212.87" width="215.4" height="106.95"/><rect class="cls-2" x="222.68" y="232.08" width="29.62" height="8.52"/><rect class="cls-2" x="179.09" y="276.74" width="29.62" height="8.52"/><rect class="cls-2" x="269.04" y="261.2" width="17.62" height="8.52"/><rect class="cls-2" x="134.67" y="236.34" width="17.62" height="8.52"/><polygon class="cls-3" points="137.14 144.57 158.87 125.64 167.92 180.07 145.57 179.23 137.14 144.57"/><path class="cls-4" d="M215.83,123.82s12.37,11.46,13.55,15.64c1.42,5-7.41,16.23-7.41,16.23Z"/><path class="cls-5" d="M139.75,104.35c-7.22,3.67-16.08,24.14-31,45.69l17.64,17.62,23.11-35.92Z"/><path class="cls-5" d="M126.34,167.66c-24.29,7.69-46.66-3.74-64.65-12.09L52,142.87l69.3,2.74Z"/><path class="cls-1" d="M137.14,103.65c-3.31,2.08-14.57,20.46-23.6,37.36l23.6,15.15,19.48-26.58Z"/><path class="cls-6" d="M145,145.42l-7.87,10.75L113.55,141c2.25-4.22,4.64-8.52,7-12.65l1.06.73Z"/><path class="cls-4" d="M127.62,116.65s-9.64,3.82-10.89,6.3,1.34,13.5,1.34,13.5Z"/><path class="cls-4" d="M111.52,144.11s-34.46-.64-44.13-.64l2.17,14.63A6.42,6.42,0,0,0,73,162.93c18.87,9.45,50,12.27,55.35,7.27,5.61-5.26,13.6-19,13.6-19l-19.25-26.56C117.85,129.9,111.52,144.11,111.52,144.11Z"/><polygon class="cls-6" points="137.32 158.91 131.8 166.37 121.75 136 137.32 158.91"/><path class="cls-4" d="M122.71,124.66s21.13,23.59,22.39,25.69,9.41,32.26,9.41,32.26-12.83-2.2-14.93-3.78-1-18.19-1-18.19l-18.44-25.49Z"/><polygon class="cls-6" points="123.39 125.41 121.5 122.72 125.87 120.27 123.39 125.41"/><polygon class="cls-6" points="67.39 143.47 59.24 143.15 61.71 158.76 70.04 159.76 67.39 143.47"/><path class="cls-5" d="M69.57,127.18c-1.4-2.93-7.23-5.71-8.95-5.1s-.63,3.52,1.24,5.24Z"/><path class="cls-3" d="M81.13,125.84h0c13.92,1.93,22.25,16.54,21.14,29.54a591.49,591.49,0,0,0,0,134.71c1.11,13-7.22,27.61-21.14,29.53h0c-14,1.79-27.89-8.72-29.07-23.2a641.72,641.72,0,0,1,0-147.38C53.24,134.56,67.12,124.05,81.13,125.84Z"/><polygon class="cls-3" points="70.04 125.64 79.13 125.67 79.13 129.22 70.04 129.22 70.04 125.64"/><path class="cls-7" d="M73.42,125.84h0c13.92,1.93,22.25,16.54,21.15,29.54a590.34,590.34,0,0,0,0,134.71c1.1,13-7.23,27.61-21.15,29.53h0c-14,1.79-27.89-8.72-29.07-23.2a641.72,641.72,0,0,1,0-147.38C45.53,134.56,59.42,124.05,73.42,125.84Z"/><path class="cls-3" d="M71.92,133.79A16.14,16.14,0,0,1,77.53,136,20.89,20.89,0,0,1,82,140.19a28.65,28.65,0,0,1,3.25,5.26,35.81,35.81,0,0,1,2.08,5.89,32.28,32.28,0,0,1,1,6.21,30.44,30.44,0,0,1,.06,3.17c0,1.05-.13,2.07-.19,3.11-.29,4.13-.5,8.26-.71,12.39-.73,16.52-1.23,33-1.32,49.55q-.15,12.39.16,24.8c.2,8.26.53,16.53,1.16,24.78.14,2.06.33,4.12.5,6.19.08,1,.18,2,.25,3.09s.1,2.11,0,3.16A33.34,33.34,0,0,1,85.54,300a23.58,23.58,0,0,1-7.66,9.78,16.07,16.07,0,0,1-5.75,2.46,18,18,0,0,1-6.25-.11,20.39,20.39,0,0,1-5.82-2.35,23.62,23.62,0,0,1-4.86-4.07,25.41,25.41,0,0,1-5.76-11.41c-.1-.53-.24-1.05-.32-1.59l-.2-1.6c-.15-1.09-.22-2.08-.33-3.12L48,281.83c-.36-4.14-.72-8.27-1-12.41-1.2-16.54-1.83-33.14-1.71-49.74s.88-33.2,2.56-49.7l.62-6.18.69-6.17c.12-1,.21-2,.36-3.1l.21-1.57c.07-.52.22-1,.33-1.55a25.53,25.53,0,0,1,2.14-5.92,26.61,26.61,0,0,1,3.48-5.15,22.74,22.74,0,0,1,4.67-4A19.65,19.65,0,0,1,65.91,134,17.35,17.35,0,0,1,71.92,133.79Zm.15.32a18.43,18.43,0,0,0-6.11.27,19.84,19.84,0,0,0-5.63,2.38,21.79,21.79,0,0,0-7.92,9.13,23.43,23.43,0,0,0-1.86,5.77c-.08.5-.22,1-.26,1.49l-.14,1.51c-.1,1-.15,2.06-.22,3.09-.3,4.13-.54,8.26-.75,12.39-.39,8.26-.73,16.52-1,24.78s-.44,16.51-.4,24.77.08,16.52.3,24.78.56,16.51,1.07,24.75c.23,4.13.58,8.24.85,12.37l.49,6.19c.09,1,.15,2.1.27,3.06l.15,1.48c.07.49.19,1,.28,1.45a23.45,23.45,0,0,0,5.13,10.5,22.45,22.45,0,0,0,4.45,3.86,19.79,19.79,0,0,0,5.41,2.32,17.44,17.44,0,0,0,5.85.27,15.7,15.7,0,0,0,5.5-2.07,19.4,19.4,0,0,0,4.47-4,26.51,26.51,0,0,0,3.21-5.14,31.19,31.19,0,0,0,2.87-11.79,28,28,0,0,0,0-3c-.07-1-.19-2.06-.28-3.09-.19-2.06-.41-4.12-.57-6.19-1.47-16.5-2.7-33.05-3-49.65a432,432,0,0,1,2-49.71c.42-4.13.84-8.25,1.33-12.36a39.73,39.73,0,0,0,.42-6.11,31,31,0,0,0-.71-6.07,29.78,29.78,0,0,0-1.9-5.82,27.51,27.51,0,0,0-3.18-5.25,19.69,19.69,0,0,0-4.51-4.13A16.66,16.66,0,0,0,72.07,134.11Z"/><path class="cls-5" d="M48,134c-4.27,1-3.25,7.75-2.33,11.29A1.89,1.89,0,0,0,48,146.6h0a1.9,1.9,0,0,0,1.35-1.95l-.09-1.23,1.17-.42a2.86,2.86,0,0,0,1.88-2.67l.09-10.1S49.12,130,48,134Z"/><path class="cls-5" d="M52.83,129.43a2.54,2.54,0,0,0-.76,2.13l.69,6.59a2,2,0,0,0,2.35,1.95h0a2,2,0,0,0,1.69-1.82l.35-7.61L61,127.4S56.22,126.34,52.83,129.43Z"/><rect class="cls-3" x="37.1" y="164.98" width="24.71" height="19.6" rx="6.81" transform="translate(7.65 -1.99) rotate(2.49)"/><rect class="cls-7" x="47.6" y="166.8" width="12.55" height="16.36" rx="5.66" transform="translate(7.66 -2.18) rotate(2.49)"/><rect class="cls-3" x="50.7" y="169.86" width="6.36" height="10.24" rx="2.87" transform="translate(7.65 -2.18) rotate(2.49)"/><path class="cls-8" d="M80.63,172.76l-21.83-.95a3.58,3.58,0,0,0-3.78,3.1,3.45,3.45,0,0,0,3.28,3.78h0a6,6,0,0,1,5.75,5.39l.37,3.35,2.84.11a3.29,3.29,0,0,0,3.35-2.68l.08-.43a6,6,0,0,1,6.21-4.93l3.24.14a3.58,3.58,0,0,0,3.77-3.1A3.44,3.44,0,0,0,80.63,172.76Z"/><path class="cls-1" d="M77.69,172.65l-21.83-1a3.59,3.59,0,0,0-3.78,3.1,3.44,3.44,0,0,0,3.28,3.78h0a6,6,0,0,1,5.75,5.4l.06.52a3.3,3.3,0,0,0,3.15,2.93h0a3.29,3.29,0,0,0,3.35-2.68l.08-.43A6,6,0,0,1,74,179.39l3.24.14a3.58,3.58,0,0,0,3.77-3.1A3.45,3.45,0,0,0,77.69,172.65Z"/><path class="cls-8" d="M71.71,179.4c-1.11-.2-2.2-.44-3.33-.55s-2.23-.23-3.35-.3a47.23,47.23,0,0,0-6.73-.07c-.29,0-.33.56,0,.62a47.06,47.06,0,0,0,6.68.82c1.09.07,2.18.1,3.27.14s2.3-.06,3.47-.1C71.94,179.94,72,179.44,71.71,179.4Z"/><rect class="cls-3" x="70.45" y="166.55" width="24.71" height="19.6" rx="6.81" transform="matrix(1, 0.04, -0.04, 1, 7.75, -3.44)"/><rect class="cls-7" x="80.96" y="168.37" width="12.55" height="16.36" rx="5.66" transform="translate(7.78 -3.63) rotate(2.5)"/><rect class="cls-3" x="84.05" y="171.43" width="6.36" height="10.24" rx="2.87" transform="translate(7.75 -3.62) rotate(2.49)"/><path class="cls-8" d="M65.93,184.27a1.67,1.67,0,1,1-1.66-1.66A1.66,1.66,0,0,1,65.93,184.27Z"/><rect class="cls-3" x="36.24" y="259.54" width="24.71" height="19.6" rx="6.81" transform="translate(-2.04 0.38) rotate(-0.43)"/><rect class="cls-7" x="46.75" y="261.13" width="12.55" height="16.36" rx="5.66" transform="translate(-2.03 0.41) rotate(-0.43)"/><rect class="cls-3" x="49.84" y="264.19" width="6.36" height="10.24" rx="2.87" transform="translate(0.43 -0.08) rotate(0.09)"/><path class="cls-8" d="M79.68,272.48l-21.86.16a3.57,3.57,0,0,1-3.66-3.23,3.45,3.45,0,0,1,3.42-3.66h0a6,6,0,0,0,5.94-5.18l.48-3.34h2.84A3.29,3.29,0,0,1,70.1,260l.06.43a6,6,0,0,0,6,5.15l3.24,0a3.58,3.58,0,0,1,3.66,3.23A3.44,3.44,0,0,1,79.68,272.48Z"/><path class="cls-1" d="M76.74,272.48l-21.86.17a3.58,3.58,0,0,1-3.66-3.24,3.45,3.45,0,0,1,3.41-3.66h0a6.05,6.05,0,0,0,5.95-5.18l.07-.52a3.29,3.29,0,0,1,3.25-2.82h0a3.28,3.28,0,0,1,3.25,2.8l.07.43a6,6,0,0,0,6,5.16l3.24,0a3.58,3.58,0,0,1,3.66,3.24A3.44,3.44,0,0,1,76.74,272.48Z"/><path class="cls-8" d="M71,265.53c-1.12.15-2.21.36-3.35.43s-2.23.15-3.35.17a47.25,47.25,0,0,1-6.73-.17c-.29,0-.31-.57,0-.62a47.09,47.09,0,0,1,6.71-.57c1.09,0,2.18,0,3.27,0s2.3.14,3.46.23C71.25,265,71.26,265.49,71,265.53Z"/><rect class="cls-3" x="69.63" y="259.17" width="24.71" height="19.6" rx="6.81" transform="translate(-2.04 0.63) rotate(-0.44)"/><rect class="cls-7" x="80.13" y="260.76" width="12.55" height="16.36" rx="5.66" transform="translate(-2.04 0.67) rotate(-0.44)"/><rect class="cls-3" x="83.23" y="263.82" width="6.36" height="10.24" rx="2.87" transform="translate(0.43 -0.14) rotate(0.09)"/><path class="cls-8" d="M65.4,260.45a1.66,1.66,0,1,0-1.72,1.6A1.65,1.65,0,0,0,65.4,260.45Z"/><path class="cls-3" d="M216.36,176.15c8.11,29.28-7.18,38.9-17.79,38.9s-72.23-.9-72.23-.9V184.76l28.17-10.21Z"/><polygon class="cls-9" points="125.8 312.8 126.75 319.82 61.44 319.82 62.82 314.18 125.8 312.8"/><path class="cls-4" d="M125.8,312.81s-19.68,1.43-37.63,1.93c-10.42.28-19.32.4-24.4-.42A139.8,139.8,0,0,0,81,307.09c15-7.12,20.38-12.19,18.8-24.44-1.22-9.5-4.2-23.79-4.2-23.79l21.87-2.79s1.55,14.9,2.67,26.58C120.88,290.52,124.65,310,125.8,312.81Z"/><path class="cls-5" d="M120.13,282.64H99.79c-1.23-9.5-4.2-23.79-4.2-23.79l21.87-2.79S119,271,120.13,282.64Z"/><path class="cls-9" d="M111.75,281.73a2.77,2.77,0,0,0-2.65-1.5,4.65,4.65,0,0,0-3.06,1.56,27.26,27.26,0,0,0-2.49,3.08,34.42,34.42,0,0,0-3.58,6.37c-.06-.17-.12-.33-.19-.5a17.36,17.36,0,0,0-.92-1.7,27.49,27.49,0,0,0-4.69-5.73,6.24,6.24,0,0,0-3-1.7c-1.85-.33-3.92,1-3.6,3a5.35,5.35,0,0,0,1.83,2.84,25.13,25.13,0,0,0,9.23,5.61s0,0,0,.07a.45.45,0,0,0-.06.12.65.65,0,0,0,.46.78,32.29,32.29,0,0,1,5,2.55c.43.26,1,.69,1.48.24s-.2-1.13-.63-1.39c-.81-.48-1.64-.93-2.49-1.34-.53-.26-1.06-.49-1.6-.72a12.69,12.69,0,0,0,2.8-1,18,18,0,0,0,3.1-1.84,14.73,14.73,0,0,0,4.92-5.54A3.91,3.91,0,0,0,111.75,281.73Zm-17.39,7.84a21.47,21.47,0,0,1-4.85-3.66c-.63-.68-1.29-1.76-.58-2.62a2.32,2.32,0,0,1,2.3-.61,6,6,0,0,1,2.59,1.65,23.19,23.19,0,0,1,2.07,2.25,26.2,26.2,0,0,1,2,2.88c.32.52.61,1.05.91,1.58.16.28.33.55.5.81A26,26,0,0,1,94.36,289.57Zm16.27-4.72a14.4,14.4,0,0,1-4.41,4.68,17,17,0,0,1-3,1.68c-.84.36-1.74.57-2.6.86a39.32,39.32,0,0,1,2.61-4.93,33.32,33.32,0,0,1,2.06-2.92,11.84,11.84,0,0,1,2.3-2.44c.85-.59,2.24-.93,3,0A2.82,2.82,0,0,1,110.63,284.85Z"/><path class="cls-9" d="M103.35,299.94a10.4,10.4,0,0,0-.9-.56l-1.75-1.06c-1.18-.72-2.38-1.41-3.58-2.11-.56-.33-1,.52-.49.88,1.14.75,2.27,1.51,3.43,2.24l1.67,1.06c.51.32,1.23,1,1.86.74a.41.41,0,0,0,.29-.37A1,1,0,0,0,103.35,299.94Z"/><path class="cls-9" d="M101.58,305.39c-1.16-1-2.34-1.9-3.52-2.84a37.34,37.34,0,0,0-4.07-3c-.34-.2-.65.26-.4.54a36.65,36.65,0,0,0,3.28,3.07c1.11,1,2.23,1.94,3.38,2.87.44.36,1.16,1.16,1.8.83S101.91,305.66,101.58,305.39Z"/><path class="cls-9" d="M94.75,307.78l-2.4-2.38c-.89-.89-1.8-1.76-2.72-2.63a.41.41,0,0,0-.57.58c1.44,1.71,2.93,3.38,4.42,5,.36.41.78,1.05,1.41.83a.6.6,0,0,0,.37-.59A1.22,1.22,0,0,0,94.75,307.78Z"/><path class="cls-9" d="M88.17,314.74c-9.63,2.1-20.34,1.57-25.35-.56A150,150,0,0,0,81,307.09a20.77,20.77,0,0,1,5.93,5.62A22.09,22.09,0,0,1,88.17,314.74Z"/><path class="cls-9" d="M113.62,303.19a4.72,4.72,0,0,0,4.83-.76c3.35-2.85,1.39-8.79-3.24-8C111.06,295.22,109.19,301.26,113.62,303.19Z"/><path class="cls-9" d="M163.32,319.82H133.54a43.07,43.07,0,0,1,1.21-7.1l29.84-3.43C164.65,318.22,163.32,319.82,163.32,319.82Z"/><path class="cls-4" d="M134.75,312.73c.88,1.54,16.7,4.87,26.76-1.11a17,17,0,0,0,3.09-2.32c0-1.63-.1-3.77-.18-6.4-.08-2.45-.19-5.33-.29-8.59-.12-3.55-.24-7.57-.32-12-.14-7.63,2.38-16.52,2.54-26.47L147.88,248c2.07,16.75,2.05,22.76.65,30.7-1.48,8.38-8.18,20.06-12,28.88A25.6,25.6,0,0,0,134.75,312.73Z"/><path class="cls-5" d="M148.53,278.67a48.1,48.1,0,0,1,15.29,3.61c-.15-7.62,2.37-16.51,2.53-26.47L147.88,248C150,264.72,149.93,270.73,148.53,278.67Z"/><path class="cls-9" d="M164.44,303c-.08-2.52-.19-5.48-.3-8.83C162.43,296.23,161.69,300.79,164.44,303Z"/><path class="cls-9" d="M134.75,312.73c2.44,3.54,17.89,6.61,26.76-1.11C152.65,304.16,137.91,302.9,134.75,312.73Z"/><path class="cls-9" d="M141.82,279.8a16.12,16.12,0,0,0,8,9.32,6.92,6.92,0,0,0-2.43-.1c-.45.09-.31.75.12.87a18.69,18.69,0,0,0,2.79.27c1,.12,1.9.29,2.84.5a34.11,34.11,0,0,1,5.67,1.77.2.2,0,1,0,.15-.36,28.09,28.09,0,0,0-5-2.06,16,16,0,0,0,7.89-1.07c2-.78,4.75-2.13,4.68-4.66s-2.94-4-5.15-3.9a10.71,10.71,0,0,0-6.45,2.88A11,11,0,0,0,152.3,287a14.82,14.82,0,0,0-2.13-6.27c-1.22-2-3.36-4.71-5.77-5.11a2.34,2.34,0,0,0-2.61,1.16A4.33,4.33,0,0,0,141.82,279.8Zm10.84,9h0a11.81,11.81,0,0,1,3.25-4.78,10.06,10.06,0,0,1,5.6-2.58,4.09,4.09,0,0,1,3.27,1.07,2.27,2.27,0,0,1,.46,2.84c-1,1.78-3.59,2.66-5.55,3.15A21.76,21.76,0,0,1,152.66,288.8Zm-9.92-11.42c.53-1.07,2-.72,2.91-.09a13.44,13.44,0,0,1,4.22,5.13,14.23,14.23,0,0,1,1.51,6.3s0,.07,0,.1a18.35,18.35,0,0,1-5.11-3.56,14.88,14.88,0,0,1-3.33-5.19A3.63,3.63,0,0,1,142.74,277.38Z"/><path class="cls-9" d="M147.79,292.54a21.46,21.46,0,0,1,11,4.18c.26.19,0,.6-.26.43a24.92,24.92,0,0,0-5.17-2.57,24.45,24.45,0,0,0-5.47-1.19.51.51,0,0,1-.45-.32.42.42,0,0,1,0-.22A.34.34,0,0,1,147.79,292.54Z"/><path class="cls-9" d="M146,297a30,30,0,0,1,11.68,2c.44.16.38.83-.09.69a38.88,38.88,0,0,0-5.67-1.34,42,42,0,0,0-5.79-.43C145.51,297.92,145.39,297,146,297Z"/><path class="cls-9" d="M144.57,301l.07-.11a.43.43,0,0,1,.42-.12c1,.14,2,.17,3,.33s2,.36,3,.6a33.9,33.9,0,0,1,5.76,2c.37.16.21.77-.17.62a45.23,45.23,0,0,0-5.7-1.78c-.92-.22-1.86-.4-2.79-.54a19.36,19.36,0,0,0-3.1-.35.54.54,0,0,1-.43-.22l-.07-.1A.29.29,0,0,1,144.57,301Z"/><path class="cls-3" d="M154.51,174.55c-57.66,0-70.25-2.24-70.69,18.27S95.39,278.3,95.39,278.3l24.9-3.8,3-60.35h22.83Z"/><path class="cls-1" d="M154.52,174.56s4.53-14.46,3.78-17c-.25-.82-9.53-18-14-26.25-4.85-9-5.86-22.51-7.2-27.65l9.59-5.58,20-11.63L178,90.22l18.68,6.26c15.29,9.12,17.81,48.74,19.72,79.67Z"/><path class="cls-6" d="M167.2,114.23c-11.25,4.38-19.84-5.61-20.47-16.16l20-11.63L178,90.22C180,99.4,176.93,110.44,167.2,114.23Z"/><path class="cls-3" d="M178.44,80.39c0,4,3.33,9,7.45,9.75-2.71,4.55-15.14,8.36-18.14,2a57.48,57.48,0,0,1,2.58-10.05Z"/><path class="cls-3" d="M179,81.34c.49.1.75.55,1,1a11.16,11.16,0,0,0,2.53,3.16c.61.53,1.23.93,1.86,1.42.3.23.62.43.94.63a5.29,5.29,0,0,0,1.08.62.3.3,0,0,1-.15.58c-.34,0-.68,0-1-.09a10.64,10.64,0,0,1-1.09-.24,7.91,7.91,0,0,1-2-.91,11.38,11.38,0,0,1-3.24-3.17,3.75,3.75,0,0,1-.94-2.17A.89.89,0,0,1,179,81.34Z"/><path class="cls-3" d="M151.09,95.67a20.94,20.94,0,0,1-8.46-2.26A13.26,13.26,0,0,1,136.18,87a12.44,12.44,0,0,0,7-6.09c3.87,1.31,7.72,3,11.73,4.14Z"/><path class="cls-3" d="M135.52,85a35.65,35.65,0,0,0,3.81-1.46c.6-.34,1.2-.69,1.77-1.09A5.5,5.5,0,0,1,143,81.3c.5-.09,1.09.31.91.88a3.67,3.67,0,0,1-1.8,1.8,11.05,11.05,0,0,1-2.1,1,9.1,9.1,0,0,1-4.44.75C135.11,85.69,135.2,85.13,135.52,85Z"/><path class="cls-5" d="M147.93,80.54l1.63,7.78,1.86,9,.87,4.71a10,10,0,0,0,11,8.12h0a10,10,0,0,0,8.78-10.63l-2-28.27Z"/><path class="cls-10" d="M149.21,86.74l1.88,8.93c10.48,1.27,16.93-6.85,17.45-16.08C164,79.16,150.78,85.62,149.21,86.74Z"/><path class="cls-5" d="M139.85,79.81c1.43,4.62,4.62,8.87,9.08,10.73,6.17,2.59,13.48.14,18.56-4.23a25.11,25.11,0,0,0,6.69-9.2c3.28-7.61,2.73-16.62-3.86-22.66-4.52-4.13-13.42-6.4-20.21-4.6A12,12,0,0,0,143.48,54C138.33,60.63,137.44,72,139.85,79.81Z"/><path class="cls-3" d="M144.38,69a1.8,1.8,0,0,0,1.09,2.18,1.62,1.62,0,0,0,1.82-1.45,1.8,1.8,0,0,0-1.09-2.18A1.61,1.61,0,0,0,144.38,69Z"/><path class="cls-3" d="M156.64,70.58a1.8,1.8,0,0,0,1.09,2.18,1.61,1.61,0,0,0,1.82-1.45,1.8,1.8,0,0,0-1.09-2.18A1.62,1.62,0,0,0,156.64,70.58Z"/><path class="cls-3" d="M147.24,73.29c1-2.38,2.18-4.69,3.35-7,.11-.22.47-.1.37.15-.8,2-1.61,3.88-2.5,5.79a8.71,8.71,0,0,0-1.08,3,2.55,2.55,0,0,0,1.14,2,.26.26,0,0,1-.11.46,1.71,1.71,0,0,1-1.67-1.34A4.86,4.86,0,0,1,147.24,73.29Z"/><path class="cls-3" d="M170.88,78.33l4.25-5.52-.65-.71A40.45,40.45,0,0,0,171.75,69C169.6,73.33,170.88,78.33,170.88,78.33Z"/><path class="cls-4" d="M143.48,54c5.3-10.08,23.94-13.83,32.55-7.3s9.26,17.89,5.73,24.36Z"/><path class="cls-4" d="M180.41,77.62c4.92,0,7.27-5.59,1.67-11.61-3.94-4.24-17.48-15.58-36.34-14.18-10.05.74-10.29,9.26-6.27,11l1.3-4.08c11.26.16,25.67,6.22,33.62,13.77Z"/><path class="cls-5" d="M177.52,71.34c2.12-.87,4.82-.71,6.4,1a6.79,6.79,0,0,1,1.41,5.37,11.41,11.41,0,0,1-2.84,6.68,8.33,8.33,0,0,1-6.6,2.74A6.56,6.56,0,0,1,170.26,83C168.68,78.5,173.71,72.9,177.52,71.34Z"/><path class="cls-3" d="M173.86,80a7.15,7.15,0,0,1,3-2.38,7.74,7.74,0,0,1,1.68-.51,17.73,17.73,0,0,1,1.78-.12c.38,0,.5.6.11.68a3.15,3.15,0,0,0-.74.22c-.24.12-.46.26-.69.39l-.7.42a2.7,2.7,0,0,0-.33.22,1.31,1.31,0,0,0-.34.27l.07-.06-.11.09-.27.23-.17.13h0a3.73,3.73,0,0,0-.61.58,10.81,10.81,0,0,0-1.06,1.27,1.08,1.08,0,0,1-1.52.07A1.1,1.1,0,0,1,173.86,80Z"/><path class="cls-3" d="M141.81,58.32c-2.93,3.53,7.54,4.1,7.08,1.07C148.55,57.13,143,56.84,141.81,58.32Z"/><path class="cls-3" d="M165.79,64c.26-2.05-4.64-3.16-6-2.62C156,62.85,165.3,67.91,165.79,64Z"/><path class="cls-6" d="M147.11,51.07a48.75,48.75,0,0,1,6.73-.08,44.31,44.31,0,0,1,6.78,1.08,41.18,41.18,0,0,1,6.52,2.07c1,.43,2,.91,3,1.42a11.63,11.63,0,0,1,3.06,1.87c.61.65.19,2.11-.88,1.77a17.54,17.54,0,0,1-2.9-1.54c-1-.52-2-1-2.95-1.45a49.24,49.24,0,0,0-6.16-2.43,45.88,45.88,0,0,0-6.42-1.47,43.31,43.31,0,0,0-6.71-.65A.3.3,0,0,1,147.11,51.07Z"/><path class="cls-1" d="M158.58,78c-.32-.65-6.28.7-6.73,1.59-.28.56,1.55,2.72,4.09,2.08C158,81.16,159,78.77,158.58,78Z"/><path class="cls-3" d="M205.62,175.38c-57.66,0-60.8-2.24-61.23,18.26s4.13,77.68,4.13,77.68l20,3.18L183.85,215l10,.07Z"/><path class="cls-7" d="M212.55,178.76a.76.76,0,0,0-1.47.39A18.37,18.37,0,0,1,200,200.62a17,17,0,0,1-7.33,1.43c-.33,0-.33.49,0,.51A19.06,19.06,0,0,0,206.08,199a18.77,18.77,0,0,0,7-12.24A17.93,17.93,0,0,0,212.55,178.76Z"/><path class="cls-7" d="M157.81,177.63a19.8,19.8,0,0,0-5.86,3.53,21.94,21.94,0,0,0-4.39,5.61,28.45,28.45,0,0,0-2.92,7.67.75.75,0,0,0-.69-.64,27,27,0,0,0-5,.91q-2.6.49-5.2.89c-3.48.52-7,.93-10.48,1.28-.5.05-.52.82,0,.8,3.56-.17,7.1-.48,10.64-.91,1.71-.21,3.43-.43,5.14-.67a22,22,0,0,0,5.24-1,.56.56,0,0,0,.24-.18,46.88,46.88,0,0,0-.95,7.67c-.07,1.66-.1,3.32-.06,5a39.23,39.23,0,0,0,.3,5.2c.16,1,1.63.69,1.7-.22.22-2.84-.09-5.74-.06-8.59a49.67,49.67,0,0,1,.73-8.52A26.56,26.56,0,0,1,152,182.7a17.09,17.09,0,0,1,6-4.67C158.2,177.93,158,177.54,157.81,177.63Z"/><path class="cls-5" d="M196.93,107.63c15.44,3.11,25,27.86,23.19,67.68l-20-5.81C196.86,151.26,184.25,105.8,196.93,107.63Z"/><path class="cls-5" d="M220.12,176.15C210,189.27,168.93,194,162.88,197.51L149,192.1l51.06-32.55Z"/><path class="cls-5" d="M149,192.1l-6.36,15.63a3.26,3.26,0,0,0,.85,3.89l3.45,2.9Z"/><path class="cls-10" d="M147,199.49c-.62,2-1.39,4-2.14,6-.66,1.74-1.69,3.89-1.32,5.8a.18.18,0,0,0,.29.08c1.34-1.41,1.63-3.8,2-5.63.43-2.06.83-4.13,1.4-6.16A.13.13,0,0,0,147,199.49Z"/><polygon class="cls-5" points="149.04 192.1 142.65 216.13 162.26 213.25 162.88 197.51 149.04 192.1"/><path class="cls-5" d="M149.62,209.24,154.73,223h7.92a1.33,1.33,0,0,0,1.27-1.21h0a1.33,1.33,0,0,0-1.13-1.44l-5.2-1.33-.62-3.71,1.74-8.28Z"/><path class="cls-5" d="M162.39,208.05l-.14,5.73,2.15,2.72,3.34-1.39a1.28,1.28,0,0,1,1.55.49h0a1.27,1.27,0,0,1-.33,1.7l-4.72,3.18-5.38-3-3.05-5-.52-4.5Z"/><polygon class="cls-5" points="142.65 216.13 145.68 221.45 149.62 221.45 151.3 222.96 157.39 222.96 151.3 210.1 142.65 216.13"/><path class="cls-10" d="M149,220.63c-.19-.37-.36-.74-.57-1.09s-.39-.75-.58-1.14a13.85,13.85,0,0,0-1.29-2.16s0,0,0,0h0c.11-.9.19-1.81.31-2.71s.31-1.79.52-2.68a.19.19,0,0,0-.36-.09,21.56,21.56,0,0,0-1.3,5.48.36.36,0,0,0,.07.22.39.39,0,0,0,0,.23,10.23,10.23,0,0,0,1.35,2.21c.25.32.52.62.76.95a3.92,3.92,0,0,0,.39.52c.14.16.3.31.44.47S149.09,220.78,149,220.63Z"/><path class="cls-10" d="M154.54,222c-.55-1-1.06-2-1.55-3-.24-.5-.5-1-.74-1.47l-.37-.74a2.73,2.73,0,0,0-.3-.56c0-.2,0-.4.06-.61s.06-.4.1-.6q.1-.67.24-1.35c.09-.43.17-.86.24-1.3s.12-.91.21-1.36a.12.12,0,1,0-.23-.06c-.17.44-.37.88-.52,1.33s-.25.84-.35,1.27-.2.86-.28,1.29-.22.93-.27,1.39a.16.16,0,0,0,0,.07v0a1.47,1.47,0,0,0,.21.86c.11.26.22.51.34.75a14.29,14.29,0,0,0,.84,1.54,26.08,26.08,0,0,0,2,2.75C154.36,222.42,154.65,222.19,154.54,222Z"/><path class="cls-1" d="M196.64,96.47c7.93,3.06,18.07,17.43,25.33,47.87l-27.73,3.54C186.88,121,187.75,92.93,196.64,96.47Z"/><polygon class="cls-6" points="190.09 139.76 220.12 135.49 221.97 144.34 193.19 148.26 190.09 139.76"/><path class="cls-7" d="M193.73,195.33a18.74,18.74,0,0,1-1.59,2.36,25.94,25.94,0,0,1-1.8,2.24,23.69,23.69,0,0,1-2,2c-.24.21-.48.38-.73.57.24-1.08.48-2.16.69-3.25a39,39,0,0,0,.74-4.56c0-.8-1.07-.84-1.31-.17a37.68,37.68,0,0,0-1.13,4.42c-.32,1.49-.63,3-.92,4.48s-.57,2.91-.79,4.38-.3,3.15-.55,4.71a.3.3,0,0,0,.59.15c.38-1.47.94-2.9,1.34-4.37.31-1.14.57-2.29.83-3.45a14.38,14.38,0,0,0,2.25-1.79,18.56,18.56,0,0,0,3.75-4.74,24.09,24.09,0,0,0,1.15-2.77C194.34,195.25,193.87,195.06,193.73,195.33Z"/><path class="cls-7" d="M123.38,209.17c-.17-1-.26-2.15-.51-3.18a27.54,27.54,0,0,0-2.43-6c-.33-.65-.7-1.28-1.08-1.91a1,1,0,0,0,.3-.17,3,3,0,0,0,.72-1.73,13.91,13.91,0,0,0,.22-1.82,11.39,11.39,0,0,0-.35-3.49,10.94,10.94,0,0,0-3.87-5.7.42.42,0,0,0-.56.62,11.73,11.73,0,0,1,2.62,5.65,11.34,11.34,0,0,1,.22,3,9.59,9.59,0,0,1-.21,1.41c0,.2-.09.39-.14.58a30.16,30.16,0,0,0-5.74-6.35,42.11,42.11,0,0,0-5.9-4c-.31-.18-.54.3-.25.48a34,34,0,0,1,8.84,8.5,36.45,36.45,0,0,1,5.54,10.68c.35,1.07.84,2.09,1.12,3.19s.51,2.23.87,3.33c.11.34.7.36.73,0A11.36,11.36,0,0,0,123.38,209.17Z"/><path class="cls-7" d="M118.14,262.31a14.18,14.18,0,0,0-2.81.91l-.4.13c-.07-1.73-.19-3.47-.28-5.2-.1-2.17-.19-4.35-.27-6.52-.14-4.26-.24-8.52-.26-12.79-.05-8.52.19-17,.6-25.55.23-4.86.51-9.73.93-14.57,0-.38-.54-.37-.58,0-.87,8.58-1.6,17.15-1.94,25.77s-.4,17-.22,25.58q.07,3.65.23,7.3c.09,2.15.14,4.33.33,6.48l-1,.33q-2.82.93-5.65,1.82c-1.89.58-3.79,1.15-5.69,1.69s-3.79,1.14-5.71,1.56c-.31.07-.2.6.11.55,2-.34,3.9-.59,5.84-1s3.92-.8,5.86-1.29,3.84-1,5.74-1.59c.94-.29,1.89-.6,2.83-.91a13.71,13.71,0,0,0,2.88-1.1A.91.91,0,0,0,118.14,262.31Z"/><path class="cls-7" d="M181.68,202.86c-2.44,8.25-4.6,16.58-6.88,24.88s-4.56,16.6-6.76,24.92l-1.8,6.88c-.58,2.24-1.21,4.48-1.68,6.75l-.7-.26c-1.51-.51-3-.94-4.59-1.32s-3-.63-4.57-.86l-2.26-.31a4.52,4.52,0,0,0-2.42.09c-.65.27-.47,1.16,0,1.47a4.65,4.65,0,0,0,2.17.51c.75.09,1.49.19,2.23.3,1.54.23,3.07.5,4.6.76a83.49,83.49,0,0,1,9,1.8c.52.15.71-.62.21-.8-.72-.25-1.43-.53-2.14-.81,1.27-4,2.19-8.16,3.23-12.23s2.11-8.34,3.14-12.52q3.09-12.54,6.19-25.07c1.16-4.69,2.29-9.38,3.35-14.09A.17.17,0,0,0,181.68,202.86Z"/><path class="cls-7" d="M117.29,206.5c0-.05-.09,0-.08,0l.27,1.25s0,0,0,0Z"/><polygon class="cls-6" points="169.87 178.83 176.82 174.39 188.28 191.4 180.79 196.27 169.87 178.83"/><path class="cls-4" d="M220.12,176.15s7-22.24,0-42.38c0,0-24.29,21.37-29,25.78s-12.06,18.07-12.06,18.07Z"/><path class="cls-6" d="M220.61,155.52a47.25,47.25,0,0,1-9.73,3.42,45.08,45.08,0,0,1-5,.94c-.83.1-1.66.18-2.5.22a6.64,6.64,0,0,0-2.55.33c-.67.3-.42,1.3.19,1.48a5.74,5.74,0,0,0,2.57-.15c.87-.15,1.73-.3,2.59-.47,1.72-.35,3.44-.75,5.12-1.25a56.11,56.11,0,0,0,9.64-3.95C221.31,155.9,221,155.34,220.61,155.52Z"/><path class="cls-4" d="M176.82,174.39c-1.83-6.73,19.54-12.45,19.54-12.45l23.76,14.21c-8.87,10.85-27.29,20-31.84,15.25Z"/><path class="cls-6" d="M201.18,183.71a17.52,17.52,0,0,1-6.68,2.71,18.6,18.6,0,0,1-3.49.34c-.62,0-1.24,0-1.85-.09a4.54,4.54,0,0,0-1.83-.09.82.82,0,0,0-.2,1.48,3.58,3.58,0,0,0,1.92.36c.61,0,1.23,0,1.85,0a19.92,19.92,0,0,0,3.85-.6,20.79,20.79,0,0,0,6.88-3.32C202.09,184.15,201.66,183.38,201.18,183.71Z"/><path class="cls-6" d="M121.71,156.87a68.8,68.8,0,0,0-3.81-6.81,29.91,29.91,0,0,0-2.31-3.06c-.42-.5-.86-1-1.32-1.46a2.51,2.51,0,0,0-1.71-1.07.76.76,0,0,0-.76.75,2.39,2.39,0,0,0,.93,1.58c.46.46.91.93,1.36,1.41.87.91,1.71,1.86,2.56,2.8a37,37,0,0,1,4.56,6.15A.29.29,0,0,0,121.71,156.87Z"/><path class="cls-8" d="M193.53,148.05a155.65,155.65,0,0,1-4.23-16.35,122.13,122.13,0,0,1-1.93-17,92.57,92.57,0,0,1,0-9.57c0-.46-.69-.45-.72,0a118.31,118.31,0,0,0-.3,17.15,104.23,104.23,0,0,0,2.48,16.94,79.78,79.78,0,0,0,2.66,9.32C192,149.82,193.92,149.35,193.53,148.05Z"/><path class="cls-8" d="M148.28,137.94c-1-2-2.18-3.84-3.19-5.81s-1.94-4-2.8-6a80.45,80.45,0,0,1-4.39-12.52.43.43,0,0,0-.84.22,77.8,77.8,0,0,0,3.49,13l.19.48a18.78,18.78,0,0,1-3.61-3.3c-.41-.51-1.31.17-.92.7a22.1,22.1,0,0,0,5.83,5.7c.38.84.76,1.68,1.18,2.5a41.39,41.39,0,0,0,3.4,6A1,1,0,0,0,148.28,137.94Z"/><path class="cls-8" d="M176,146.94a7.78,7.78,0,0,0-2.7-1.81c-.93-.53-1.85-1.08-2.75-1.66a64.21,64.21,0,0,1-5.32-3.8,66.63,66.63,0,0,1-9.28-9,63,63,0,0,1-4.47-5.93.15.15,0,0,0-.25.15,61.92,61.92,0,0,0,17.52,19.62c1,.72,2,1.4,3,2.06l1.64,1a3.74,3.74,0,0,0,1.82.72A.89.89,0,0,0,176,146.94Z"/><path class="cls-8" d="M147.64,116.94c-1.27-4.32-2.8-8.51-3.47-13-.06-.39-.74-.31-.69.08.49,4.51,1.21,9.18,3.18,13.3C146.92,117.89,147.8,117.51,147.64,116.94Z"/><path class="cls-8" d="M173.86,130.79a7.67,7.67,0,0,0-2.47-1.2c-.88-.37-1.75-.77-2.61-1.19a45.87,45.87,0,0,1-4.79-2.69,47.49,47.49,0,0,1-8.56-7.12,44.58,44.58,0,0,1-4.13-5c-.28-.4-1,0-.67.38a50.13,50.13,0,0,0,16.65,15.54c.91.52,1.85,1,2.8,1.48s2.14,1.22,3.19,1.18A.84.84,0,0,0,173.86,130.79Z"/><path class="cls-8" d="M187.32,157.05a23.5,23.5,0,0,0-3.18.71c-1.06.22-2.12.4-3.19.53a40.29,40.29,0,0,1-6.21.27,33.87,33.87,0,0,1-12.47-2.73c-.62-.27-1.15.63-.53.92a39.52,39.52,0,0,0,12.77,3.54,33.24,33.24,0,0,0,6.69,0q1.63-.16,3.24-.48a11.73,11.73,0,0,0,3.36-.93A1,1,0,0,0,187.32,157.05Z"/><path class="cls-2" d="M101.7,77.61H34.61c-1.15-1.84.94-5,3-5.5s4.3.26,6.34,1,4.28,1.48,6.35.79c2.64-.88,4-3.69,5.19-6.21,1.59-3.43,3.45-7,6.64-9s8.11-1.8,10.08,1.42c1.16,1.88,1.06,4.23,1.31,6.43s1.15,4.65,3.24,5.36c2.53.87,5-1.27,7.39-2.42C89.82,66.81,100.19,71.56,101.7,77.61Z"/><path class="cls-2" d="M312.34,113.82H229.69c-.89-2.43,2.22-4.63,4.8-4.82s5.41.46,7.59-.93c3.12-2,2.8-6.55,4.12-10a10,10,0,0,1,17.2-2.56c2.84,3.66,3.42,9.48,7.72,11.17,4.7,1.85,10.2-2.93,14.8-.86,2.68,1.21,4.07,4.41,6.78,5.55,2.18.92,4.7.29,6.92-.54s4.48-1.86,6.85-1.69S312.58,111.46,312.34,113.82Z"/><path class="cls-2" d="M233.67,22.23H163.05c-.86-2.44,1.74-5.29,4.25-5.94s5.32-.51,7.45-2c4.4-3.08,3.14-11,7.85-13.63,2.71-1.48,6.19-.32,8.53,1.69s3.94,4.74,6,7,4.94,4.25,8,3.9c2.85-.33,5.33-2.6,8.19-2.4,3.48.23,5.77,3.94,9.14,4.85,2.15.58,4.46-.07,6.64.35S235,20.43,233.67,22.23Z"/><path class="cls-6" d="M251.82,320.11c-1.29-6.63-2.83-13.6-1.74-20.28.9-5.52,4.07-10.8,6.56-15.81-2,15.81,1.85,22.34,2.79,33.57.07.84.12,1.69.12,2.52Z"/><path class="cls-4" d="M266.82,320.11h-7.27a17.49,17.49,0,0,0,1.84-6.3,42.66,42.66,0,0,0-.6-10.57h0l-.21-1.47c-.58-4-1.09-8.07-.36-12a22.11,22.11,0,0,0,1.61,5.77c1.44,3.52,3.46,6.8,4.76,10.51h0c.11.31.21.61.3.92s.11.36.17.54A22.17,22.17,0,0,1,266.82,320.11Z"/><path class="cls-4" d="M248.9,299.92c1.78,6.8,3.55,14.6,4.78,20.19h-6.91c-2.84-8.45-3.71-18.45-.87-30.37C246.83,292.38,247.87,296,248.9,299.92Z"/><path class="cls-6" d="M41.8,306.88c0,.52,0,1-.09,1.55a71.88,71.88,0,0,1-1.83,11.68H34c.13-.74.26-1.49.38-2.24q1-6.35,2-12.72h0c.32-2.28.62-4.57.91-6.85q1-7.62,1.7-15.25A69.87,69.87,0,0,1,41.8,306.88Z"/><path class="cls-6" d="M25.18,320.11c-1.15-5.88-2.52-12.06-1.54-18,.79-4.9,3.61-9.58,5.81-14-1.78,14,1.64,19.8,2.47,29.76.06.75.11,1.5.11,2.24Z"/><path class="cls-6" d="M53.71,295.62c-2.07,5.16-5,8.51-7.45,15.62-.82,2.36-1.52,5.78-2.38,8.87H38.21c.37-2.19.89-4.28,1.09-5.32a31.46,31.46,0,0,1,2.14-7.17h0c.12-.25.24-.5.36-.73C44.5,301.79,48.29,301.69,53.71,295.62Z"/><path class="cls-4" d="M36.18,320.11H29.74a15.54,15.54,0,0,0,1.63-5.59,37.82,37.82,0,0,0-.53-9.37h0c-.07-.43-.13-.87-.19-1.3a33,33,0,0,1-.32-10.67,20.2,20.2,0,0,0,1.42,5.12c1.29,3.12,3.08,6,4.23,9.31h0c.09.27.18.53.27.81s.1.32.14.48A19.59,19.59,0,0,1,36.18,320.11Z"/><path class="cls-4" d="M23.42,302.21c1.58,6,3.16,12.94,4.25,17.9H21.54c-2.52-7.49-3.29-16.36-.77-26.93C21.59,295.52,22.51,298.72,23.42,302.21Z"/><path class="cls-6" d="M41.8,306.88c0,.52,0,1-.09,1.55a71.88,71.88,0,0,1-1.83,11.68H34c.13-.74.26-1.49.38-2.24q1-6.35,2-12.72h0c.32-2.28.62-4.57.91-6.85q1-7.62,1.7-15.25A69.87,69.87,0,0,1,41.8,306.88Z"/><path class="cls-4" d="M53.71,295.62c-2.07,5.16-5,8.51-7.45,15.62-.82,2.36-1.52,5.78-2.38,8.87H38.21c.37-2.19.89-4.28,1.09-5.32a31.46,31.46,0,0,1,2.14-7.17h0c.12-.25.24-.5.36-.73C44.5,301.79,48.29,301.69,53.71,295.62Z"/><line class="cls-11" x1="309.5" y1="321.21" x2="6.33" y2="321.21"/><path class="cls-12" d="M103.37,129.9H99.5a2.17,2.17,0,0,1-2.17-2.17v-4.49"/><path class="cls-12" d="M142.92,123.24v4.49a2.17,2.17,0,0,1-2.17,2.17h-3.87"/><path class="cls-12" d="M97.33,97.12V92.63a2.17,2.17,0,0,1,2.17-2.17h3.87"/><path class="cls-12" d="M136.88,90.46h3.87a2.17,2.17,0,0,1,2.17,2.17v4.49"/><rect class="cls-12" x="43.01" y="-9.44" width="154.23" height="239.25" rx="11.75" transform="translate(9.94 230.31) rotate(-90)"/><path class="cls-12" d="M10.72,59.38v-10a5.93,5.93,0,0,1,5.93-5.93H26.93"/><path class="cls-12" d="M26.93,177H16.65A5.92,5.92,0,0,1,10.72,171V161"/><path class="cls-12" d="M229.53,161v10A5.92,5.92,0,0,1,223.6,177H213.32"/><path class="cls-12" d="M213.32,43.42H223.6a5.93,5.93,0,0,1,5.93,5.93v10"/><path class="cls-12" d="M132.21,110.18h0a12.08,12.08,0,0,1-12.08,12.08h0A12.08,12.08,0,0,1,108,110.18h0A12.08,12.08,0,0,1,120.13,98.1h0A12.08,12.08,0,0,1,132.21,110.18Z"/><line class="cls-12" x1="112.68" y1="110.18" x2="127.57" y2="110.18"/><line class="cls-12" x1="120.13" y1="117.63" x2="120.13" y2="102.74"/><path class="cls-1" d="M204.17,73h0a12.33,12.33,0,0,0,7.47,12.28h0a12.33,12.33,0,0,0-12.29,7.47h0a12.33,12.33,0,0,0-7.47-12.28h0A12.34,12.34,0,0,0,204.17,73Z"/><path class="cls-1" d="M198.64,62.91h0a6.86,6.86,0,0,0,4.16,6.83h0A6.87,6.87,0,0,0,196,73.9h0a6.86,6.86,0,0,0-4.16-6.83h0A6.87,6.87,0,0,0,198.64,62.91Z"/><path class="cls-1" d="M124,65.07h0a6.86,6.86,0,0,0,7.2,3.48h0a6.88,6.88,0,0,0-3.48,7.2h0a6.87,6.87,0,0,0-7.2-3.48h0A6.87,6.87,0,0,0,124,65.07Z"/></g></g></svg>